<?xml version="1.0" encoding="UTF-8" standalone="no"?>
<!DOCTYPE svg PUBLIC "-//W3C//DTD SVG 1.1//EN" "http://www.w3.org/Graphics/SVG/1.1/DTD/svg11.dtd">
<svg xmlns="http://www.w3.org/2000/svg">
<metadata>
This is a custom SVG webfont generated by Font Squirrel.
Copyright   : Copyright 2011 Dalton Maag Ltd All rights reserved This font may not be altered in any way without prior permission of Dalton Maag Ltd
Foundry     : Dalton Maag Ltd
Foundry URL : httpwwwdaltonmaagcom
</metadata>
<defs>
<font id="SRGSSRTypeMedium" horiz-adv-x="576">
<font-face units-per-em="1000" ascent="800" descent="-200"/>
<missing-glyph horiz-adv-x="206"/>
<glyph unicode=" " horiz-adv-x="206"/>
<glyph unicode="	" horiz-adv-x="206"/>
<glyph unicode=" " horiz-adv-x="206"/>
<glyph unicode="!" horiz-adv-x="267" d="M188 194h-109l-12 479h133zM70 123h127v-123h-127v123z"/>
<glyph unicode="&quot;" horiz-adv-x="395" d="M52 657h107v-241h-107v241zM236 657h107v-241h-107v241z"/>
<glyph unicode="#" horiz-adv-x="646" d="M512 408l-35 -158h79v-91h-99l-35 -159h-106l35 159h-121l-35 -159h-108l35 159h-87v91h107l34 158h-86v92h106l35 157h108l-35 -157h121l35 157h107l-35 -157h79v-92h-99zM250 250h121l34 158h-121z"/>
<glyph unicode="$" d="M62 111q6 -2 25.5 -6.5t46 -9t57 -8t59.5 -3.5v201l-35 9q-77 20 -120 62.5t-43 122.5t48 130t150 58v91h71v-90q34 -1 64 -4.5t53.5 -8t39 -8.5t20.5 -5l-18 -89l-18 4.5t-35 7t-48 6.5t-58 4v-194l30 -7q95 -23 135 -68.5t40 -118.5q0 -47 -14.5 -82t-41.5 -59t-65 -37 t-84 -17v-102h-71v100q-43 1 -79.5 5.5t-64.5 10t-44.5 9.5t-18.5 5zM321 87q49 5 68.5 28t19.5 65q0 41 -20.5 59.5t-67.5 29.5v-182zM250 574q-42 -5 -64 -24.5t-22 -64.5q0 -41 21 -59t65 -28v176z"/>
<glyph unicode="%" horiz-adv-x="920" d="M561 188q0 57 11.5 95t32.5 61t51 32.5t66 9.5t66 -9.5t51.5 -32.5t33.5 -61t12 -95q0 -56 -11.5 -94t-32.5 -61t-51 -32.5t-66 -9.5t-66 9.5t-51.5 32.5t-33.5 61t-12 94zM660 188q0 -35 3.5 -58t11.5 -36.5t20 -18.5t29 -5q16 0 27.5 5t19 18.5t11 36.5t3.5 58 q0 36 -3.5 59t-11 36.5t-19.5 18.5t-29 5q-16 0 -27.5 -5t-19 -18.5t-11.5 -36.5t-4 -59zM35 481q0 57 11.5 95t32.5 61t51 32.5t66 9.5t66 -9.5t51.5 -32.5t33.5 -61t12 -95q0 -56 -11.5 -94t-32.5 -61t-51 -32.5t-66 -9.5t-66 9.5t-51.5 32.5t-33.5 61t-12 94zM134 481 q0 -35 3.5 -58t11.5 -36.5t20 -18.5t29 -5q16 0 27.5 5t19 18.5t11 36.5t3.5 58q0 36 -3.5 59t-11 36.5t-19.5 18.5t-29 5q-16 0 -27.5 -5t-19 -18.5t-11.5 -36.5t-4 -59zM575 673h114l-344 -673h-114z"/>
<glyph unicode="&amp;" horiz-adv-x="663" d="M449 51q-38 -28 -85 -46t-110 -18q-48 0 -88.5 11.5t-70 35.5t-46 60.5t-16.5 85.5q0 68 34.5 114t101.5 87q-22 30 -37.5 65.5t-15.5 77.5q0 34 11 63.5t33.5 52t57 35.5t81.5 13q36 0 66 -10.5t51 -29.5t32.5 -44.5t11.5 -56.5q0 -20 -5 -42t-20 -45t-42.5 -47 t-71.5 -49l144 -168q35 42 57 82.5t34 70.5l85 -35q-14 -35 -41.5 -87.5t-72.5 -103.5l106 -123h-139zM226 311q-35 -22 -55.5 -49t-20.5 -72q0 -52 31 -79t82 -27q40 0 70.5 10.5t55.5 27.5zM262 425q30 15 49.5 29.5t30 28.5t14.5 28t4 28q0 27 -17.5 44.5t-46.5 17.5 q-41 0 -59 -21t-18 -53t12 -55t31 -47z"/>
<glyph unicode="'" horiz-adv-x="215" d="M52 657h110v-241h-110v241z"/>
<glyph unicode="(" horiz-adv-x="315" d="M63 323q0 115 38.5 208.5t112.5 179.5l81 -59q-57 -80 -84.5 -158t-27.5 -171t27.5 -171t84.5 -158l-81 -59q-74 86 -112.5 179.5t-38.5 208.5z"/>
<glyph unicode=")" horiz-adv-x="315" d="M252 323q0 -115 -38.5 -208.5t-112.5 -179.5l-81 59q57 80 84.5 158t27.5 171t-27.5 171t-84.5 158l81 59q74 -86 112.5 -179.5t38.5 -208.5z"/>
<glyph unicode="*" horiz-adv-x="396" d="M133 346l-73 53l80 92l-107 34l35 81l91 -45l-7 112h92l-7 -112l91 45l35 -81l-107 -34l80 -92l-73 -53l-65 94z"/>
<glyph unicode="+" d="M235 278h-162v98h162v175h105v-175h163v-98h-163v-170h-105v170z"/>
<glyph unicode="," horiz-adv-x="253" d="M73 129h123l-71 -239h-94z"/>
<glyph unicode="-" horiz-adv-x="428" d="M53 341h322v-112h-322v112z"/>
<glyph unicode="." horiz-adv-x="253" d="M60 130h133v-130h-133v130z"/>
<glyph unicode="/" horiz-adv-x="393" d="M266 703h117l-255 -734h-118z"/>
<glyph unicode="0" d="M288 -12q-60 0 -106 17t-77 56.5t-47 105.5t-16 164q0 97 16 163t47 105.5t77 56.5t106 17t106 -17t77 -56.5t47 -105.5t16 -163q0 -98 -16 -164t-47 -105.5t-77 -56.5t-106 -17zM288 87q32 0 55 10.5t37.5 38t21 74.5t6.5 121q0 73 -6.5 120.5t-21 74.5t-37.5 37.5 t-55 10.5q-33 0 -55.5 -10.5t-37 -37.5t-21 -74.5t-6.5 -120.5q0 -74 6.5 -121t21 -74.5t37 -38t55.5 -10.5z"/>
<glyph unicode="1" d="M272 537l-168 -59l-28 94l227 85h90v-657h-121v537z"/>
<glyph unicode="2" d="M55 63q0 49 17.5 87t45.5 68.5t64 56.5t74 52q25 17 47 31t38.5 30t26 35.5t9.5 47.5q0 53 -32.5 74.5t-89.5 21.5q-32 0 -64 -6.5t-59 -14.5t-45 -15t-21 -8l9 106q3 1 20.5 8.5t44.5 15t61 14t71 6.5q109 0 167.5 -52.5t58.5 -146.5q0 -43 -13.5 -74t-36.5 -55.5 t-52.5 -45t-60.5 -42.5q-24 -17 -49 -34.5t-46 -36.5t-36 -39t-19 -42h318l-16 -105h-432v63z"/>
<glyph unicode="3" d="M60 108q7 -2 23.5 -5t39.5 -6t51.5 -5t58.5 -2q66 0 103.5 22t37.5 79q0 45 -27 72t-95 27h-110v97h109q34 0 56.5 7.5t36 20t19.5 30.5t6 39q0 49 -34.5 67.5t-91.5 18.5q-27 0 -58 -4t-57.5 -8.5t-45 -9t-21.5 -5.5l8 98q37 11 83 21.5t102 10.5q118 0 174 -49t56 -134 q0 -57 -23 -92t-68 -57q50 -19 74.5 -59t24.5 -97q0 -89 -61.5 -143t-188.5 -54q-36 0 -70 3t-61 6.5t-45 7t-23 5.5z"/>
<glyph unicode="4" d="M35 246l316 411h111v-403h77v-96h-77v-158h-113v158h-314v88zM349 254v255l-196 -255h196z"/>
<glyph unicode="5" d="M69 105q8 -2 25 -4.5t40.5 -5t51.5 -4.5t58 -2q61 0 99.5 26t38.5 87t-35.5 85t-96.5 24q-18 0 -39.5 -2.5t-40.5 -5.5t-34.5 -6t-21.5 -4l-37 59l26 305h369v-104h-274l-13 -156q10 2 34 5.5t55 3.5q106 0 165 -52t59 -149q0 -48 -15.5 -88t-46 -68.5t-77 -44.5 t-109.5 -16q-36 0 -69.5 2.5t-60 6.5t-44.5 7.5t-24 5.5z"/>
<glyph unicode="6" d="M483 557q-14 4 -48 10t-80 6q-38 0 -68.5 -8.5t-53.5 -29.5t-37.5 -56t-20.5 -89q15 8 53.5 20.5t86.5 12.5q60 0 100.5 -16.5t66 -45t36.5 -66.5t11 -81q0 -113 -59 -169.5t-171 -56.5q-59 0 -104 17.5t-75 55.5t-45.5 99.5t-15.5 150.5q0 93 20.5 161.5t58 113t90 66 t117.5 21.5q32 0 59.5 -3t48 -7t33 -7.5t14.5 -4.5zM174 298q0 -66 9 -108t25.5 -66t39.5 -33t52 -9q58 0 87.5 31t29.5 100q0 55 -26 85.5t-93 30.5q-20 0 -39.5 -4t-36.5 -9.5t-30 -10.5t-18 -7z"/>
<glyph unicode="7" d="M380 551h-321v105h435l13 -83l-229 -573h-126z"/>
<glyph unicode="8" d="M169 343q-45 22 -75 57t-30 92q0 39 14 72.5t42 57.5t69.5 37.5t97.5 13.5q112 0 169 -44t57 -129q0 -58 -26 -92t-74 -58q26 -12 48 -27t38 -35.5t25 -47t9 -61.5q0 -48 -18 -84t-51 -60t-78 -35.5t-99 -11.5t-99 11t-77.5 33.5t-50 56.5t-17.5 81q0 35 9.5 62 t26.5 47.5t40 36t50 27.5zM274 299q-22 -7 -43.5 -16.5t-38 -23t-26.5 -32t-10 -44.5q0 -51 32.5 -78t98.5 -27q133 0 133 100q0 28 -11.5 46.5t-31.5 32t-46.5 23.5t-56.5 19zM303 391q21 8 40 17.5t32.5 21.5t21.5 28t8 37q0 46 -31 68.5t-87 22.5q-54 0 -84 -23t-30 -67 q0 -23 11.5 -39.5t30.5 -28.5t42 -21t46 -16z"/>
<glyph unicode="9" d="M92 104q14 -4 48 -10t80 -6q39 0 69.5 8t53 29t36.5 56t20 89q-15 -8 -52.5 -20t-83.5 -12q-61 0 -102.5 16.5t-67 44.5t-37 66t-11.5 82q0 112 59 169t172 57q59 0 104 -17.5t75 -56t45.5 -100.5t15.5 -150q0 -93 -20 -161.5t-57.5 -112.5t-90 -65.5t-118.5 -21.5 q-32 0 -59.5 3t-48.5 6.5t-33.5 7t-14.5 4.5zM400 362q0 66 -9 108t-25.5 66t-39.5 33t-51 9q-59 0 -88 -31.5t-29 -98.5q0 -56 25.5 -86t93.5 -30q19 0 39 4t37 9t29.5 10z"/>
<glyph unicode=":" horiz-adv-x="253" d="M60 507h133v-130h-133v130zM60 130h133v-130h-133v130z"/>
<glyph unicode=";" horiz-adv-x="253" d="M60 507h133v-130h-133v130zM73 129h123l-71 -239h-94z"/>
<glyph unicode="&lt;" d="M95 368l389 197v-114l-259 -124l259 -126v-116l-389 198v85z"/>
<glyph unicode="=" d="M78 274h420v-103h-420v103zM78 491h420v-103h-420v103z"/>
<glyph unicode="&gt;" d="M481 282l-389 -197v114l259 124l-259 126v116l389 -198v-85z"/>
<glyph unicode="?" horiz-adv-x="478" d="M137 316q8 12 15 23.5t14 23.5q43 9 72 21.5t46.5 29t25 36.5t7.5 45q0 93 -117 93q-25 0 -50.5 -4t-48 -10t-41 -12.5t-29.5 -10.5l12 99q12 5 30 11.5t41 12t49.5 9.5t53.5 4q58 0 99.5 -13.5t68 -38.5t39 -59t12.5 -74q0 -75 -42.5 -126t-145.5 -81v-101h-111v122z M130 123h126v-123h-126v123z"/>
<glyph unicode="@" horiz-adv-x="930" d="M558 378q-17 5 -34.5 9t-41.5 4q-63 0 -91.5 -47t-28.5 -130q0 -95 85 -95q19 0 41.5 4t33.5 8zM527 59q-14 -8 -43 -20t-71 -12q-34 0 -62.5 11t-49.5 34t-32.5 57t-11.5 81q0 68 16.5 119t45.5 84.5t68 50t84 16.5q44 0 70.5 -12t38.5 -20l9 23h82l-49 -354 q84 5 122.5 60.5t38.5 154.5q0 134 -73 195.5t-207 61.5q-84 0 -150 -22t-112.5 -65.5t-71 -110t-24.5 -154.5q0 -86 21.5 -146t63.5 -97.5t104 -54t143 -16.5q34 0 67.5 3.5t62 8.5t51 10.5t36.5 9.5l-15 -90q-26 -8 -82.5 -18.5t-125.5 -10.5q-100 0 -179 22t-134 70 t-84 123.5t-29 182.5q0 108 33.5 190.5t94.5 138.5t146 85t188 29q87 0 157 -22.5t119 -66t75 -106.5t26 -144q0 -86 -25 -144.5t-66 -94.5t-93.5 -51.5t-107.5 -15.5h-61z"/>
<glyph unicode="A" horiz-adv-x="629" d="M254 673h122l239 -673h-126l-59 170h-237l-59 -170h-120zM399 269l-86 261l-88 -261h174z"/>
<glyph unicode="B" horiz-adv-x="605" d="M78 673h242q115 0 164.5 -49t49.5 -136q0 -51 -24.5 -85.5t-63.5 -52.5q53 -17 81 -56t28 -104q0 -48 -16.5 -83.5t-45.5 -59.5t-68.5 -35.5t-85.5 -11.5h-261v673zM325 99q24 0 43.5 4t34 14.5t22.5 29.5t8 49q0 57 -30.5 78.5t-83.5 21.5h-122v-197h128zM300 394 q60 0 86.5 18.5t26.5 69.5q0 50 -25.5 71t-77.5 21h-113v-180h103z"/>
<glyph unicode="C" horiz-adv-x="560" d="M517 10q-2 -1 -17 -5t-39 -8t-55 -7t-65 -3q-69 0 -122.5 17.5t-91 58.5t-57 108.5t-19.5 166.5q0 94 20.5 160.5t59 107.5t94 60t126.5 19q34 0 64.5 -4.5t54.5 -10t40 -11t21 -7.5l-23 -99q-11 3 -28 7t-37 7t-41.5 5.5t-39.5 2.5q-45 0 -79 -10.5t-56 -37t-33 -72.5 t-11 -117t11 -118t34 -74.5t58 -38.5t82 -11q45 0 89 7t72 13z"/>
<glyph unicode="D" horiz-adv-x="661" d="M294 103q42 0 76 8.5t58.5 34t37.5 71.5t13 120t-13 120t-37.5 71t-58.5 33.5t-76 8.5h-93v-467h93zM78 673h217q70 0 128 -15.5t99 -54t64 -103t23 -163.5t-23 -164t-64 -103.5t-99 -54t-128 -15.5h-217v673z"/>
<glyph unicode="E" horiz-adv-x="547" d="M78 673h414v-107h-291v-167h263v-105h-263v-188h307l-14 -106h-416v673z"/>
<glyph unicode="F" horiz-adv-x="530" d="M78 673h414v-107h-291v-168h263v-106h-263v-292h-123v673z"/>
<glyph unicode="G" horiz-adv-x="632" d="M459 275h-115v102h234v-370q-11 -3 -32.5 -6.5t-50 -7t-63 -6t-71.5 -2.5q-75 0 -133 18.5t-97 60t-59.5 108.5t-20.5 164q0 95 21 161.5t61.5 108t99 60.5t132.5 19q40 0 74.5 -5t60.5 -11t42 -11.5t19 -6.5l-22 -97q-23 5 -68 13.5t-98 8.5q-48 0 -84.5 -10.5 t-60.5 -37.5t-36 -73.5t-12 -118.5t12 -119t36 -75t60.5 -39t85.5 -11q29 0 53 1.5t32 3.5v178z"/>
<glyph unicode="H" horiz-adv-x="672" d="M78 673h123v-267h270v267h123v-673h-123v295h-270v-295h-123v673z"/>
<glyph unicode="I" horiz-adv-x="279" d="M78 673h123v-673h-123v673z"/>
<glyph unicode="J" horiz-adv-x="490" d="M60 120q4 -2 16.5 -7t30.5 -10t40 -9t46 -4q57 0 80 26.5t23 96.5v460h123v-472q0 -114 -53.5 -165t-158.5 -51q-39 0 -71 6t-55 13t-36.5 13.5t-15.5 7.5z"/>
<glyph unicode="K" horiz-adv-x="632" d="M246 334l16 71l196 268h134l-223 -304l252 -369h-144zM78 673h122v-673h-122v673z"/>
<glyph unicode="L" horiz-adv-x="518" d="M78 673h123v-567h292l-14 -106h-401v673z"/>
<glyph unicode="M" horiz-adv-x="764" d="M78 673h126l179 -365l177 365h126v-673h-118v475l-140 -283h-97l-134 275v-467h-119v673z"/>
<glyph unicode="N" horiz-adv-x="671" d="M78 673h122l279 -478v478h114v-673h-119l-282 479v-479h-114v673z"/>
<glyph unicode="O" horiz-adv-x="689" d="M344 -15q-70 0 -124.5 17.5t-92 59t-57 109t-19.5 166.5t20 166t58 108t92 58.5t123 17.5q70 0 124.5 -17.5t92 -58.5t57 -108t19.5 -166t-19.5 -166.5t-56.5 -109t-92 -59t-125 -17.5zM344 86q43 0 73.5 12t50.5 40.5t29.5 77t9.5 121.5t-9.5 121t-29.5 76.5t-50.5 40 t-73.5 11.5t-73.5 -11.5t-50.5 -40t-29.5 -76.5t-9.5 -121t9.5 -121.5t29.5 -77t50.5 -40.5t73.5 -12z"/>
<glyph unicode="P" horiz-adv-x="573" d="M267 367q32 0 59 4.5t46.5 16t30 31t10.5 50.5q0 50 -26 76t-88 26h-102v-571h-122v673h247q57 0 97.5 -15t66.5 -42t38 -64t12 -81q0 -96 -60.5 -148.5t-200.5 -52.5h-31z"/>
<glyph unicode="Q" horiz-adv-x="689" d="M344 -15q-70 0 -124.5 17.5t-92 59t-57 109t-19.5 166.5t20 166t58 108t92 58.5t123 17.5q70 0 124.5 -17.5t92 -58.5t57 -108t19.5 -166q0 -112 -24 -183.5t-71 -110.5l98 -132h-124l-63 87q-48 -13 -109 -13zM344 87q22 0 42 3l-73 102l75 58l81 -110q20 29 29 76.5 t9 120.5t-9.5 121t-29.5 76.5t-50.5 40t-73.5 11.5t-73.5 -11.5t-50 -40t-29 -76.5t-9.5 -121t9.5 -121.5t29 -77t50 -40t73.5 -11.5z"/>
<glyph unicode="R" horiz-adv-x="612" d="M78 673h248q114 0 165.5 -52.5t51.5 -141.5q0 -46 -14 -77.5t-37 -52.5t-52 -33t-60 -18l215 -298h-145l-201 286l20 86q35 1 63 6t47 16.5t29 31t10 49.5q0 50 -25 73t-90 23h-103v-571h-122v673z"/>
<glyph unicode="S" horiz-adv-x="546" d="M54 114q7 -2 28 -6t48 -8.5t56.5 -7.5t53.5 -3q38 0 64.5 4.5t43 15t24 29t7.5 45.5q0 47 -25.5 65.5t-74.5 29.5l-75 18q-78 18 -117.5 65.5t-39.5 128.5q0 91 56 144t180 53q35 0 67.5 -3.5t59 -8t45 -9.5t24.5 -7l-17 -96l-27 6t-42 7.5t-52 6t-57 2.5 q-25 0 -46.5 -3.5t-37 -13.5t-24.5 -27.5t-9 -44.5q0 -44 23 -63.5t64 -29.5l81 -18q94 -22 131.5 -70.5t37.5 -125.5q0 -55 -18 -94t-50.5 -63.5t-78 -35.5t-101.5 -11q-45 0 -84.5 4.5t-69 10t-47.5 10t-21 5.5z"/>
<glyph unicode="T" horiz-adv-x="567" d="M221 566h-200v107h524v-107h-200v-566h-124v566z"/>
<glyph unicode="U" horiz-adv-x="663" d="M75 673h123v-445q0 -44 9 -71t26 -43t41.5 -21.5t56.5 -5.5q31 0 56 5.5t42.5 21.5t26.5 43t9 71v445h123v-430q0 -78 -17 -128t-50 -79t-81 -40t-109 -11t-108.5 11t-80.5 40t-50 79t-17 128v430z"/>
<glyph unicode="V" horiz-adv-x="621" d="M16 673h134l163 -522l165 522h127l-230 -673h-130z"/>
<glyph unicode="W" horiz-adv-x="869" d="M16 673h134l106 -512l120 512h121l120 -512l109 512h127l-175 -673h-127l-118 497l-120 -497h-127z"/>
<glyph unicode="X" horiz-adv-x="615" d="M242 345l-201 328h134l138 -232l139 232h125l-201 -324l214 -349h-133l-151 254l-153 -254h-126z"/>
<glyph unicode="Y" horiz-adv-x="600" d="M238 299l-226 374h134l158 -276l160 276h123l-225 -374v-299h-124v299z"/>
<glyph unicode="Z" horiz-adv-x="543" d="M31 98l335 468h-317v107h443l13 -96l-337 -471h343l-14 -106h-466v98z"/>
<glyph unicode="[" horiz-adv-x="314" d="M69 693h220v-92h-105v-556h105v-91h-220v739z"/>
<glyph unicode="\" horiz-adv-x="393" d="M10 703h117l256 -734h-118z"/>
<glyph unicode="]" horiz-adv-x="314" d="M25 -46v91h105v556h-105v92h220v-739h-220z"/>
<glyph unicode="^" d="M232 673h111l179 -337h-125l-110 216l-110 -216h-124z"/>
<glyph unicode="_" horiz-adv-x="505" d="M2 -72h500v-75h-500v75z"/>
<glyph unicode="`" horiz-adv-x="525" d="M152 731h126l94 -152h-100z"/>
<glyph unicode="a" horiz-adv-x="523" d="M354 32q-8 -5 -20.5 -12.5t-30 -14.5t-41 -12t-51.5 -5q-33 0 -64 7t-54 25t-37 49.5t-14 80.5q0 91 51 128t140 37q18 0 36 -1.5t33 -3t26.5 -3.5t15.5 -2v30q0 21 -4.5 37.5t-17 28t-34 17t-55.5 5.5q-25 0 -50 -3t-46 -6.5t-36 -7t-19 -4.5l7 92q4 1 19.5 5.5 t39.5 8.5t54.5 7.5t62.5 3.5q92 0 142 -39t50 -128v-352h-95zM344 226q-9 1 -35.5 3.5t-59.5 2.5q-51 0 -74.5 -16.5t-23.5 -65.5q0 -45 24 -58.5t69 -13.5q16 0 32 2.5t29.5 6.5t23.5 8l15 6v125z"/>
<glyph unicode="b" horiz-adv-x="566" d="M70 725h117v-230q9 4 42.5 14t81.5 10q103 0 155 -63.5t52 -197.5q0 -72 -14.5 -123t-42.5 -83.5t-67.5 -48t-88.5 -15.5q-24 0 -44.5 5t-37 12t-29 14.5t-19.5 13.5l-5 -33h-100v725zM187 110q4 -3 13 -7t21.5 -8.5t27 -7.5t30.5 -3q31 0 53.5 8t37.5 28.5t22.5 54.5 t7.5 87q0 49 -7.5 80t-22.5 49t-37.5 25t-53.5 7q-32 0 -58 -6.5t-34 -9.5v-297z"/>
<glyph unicode="c" horiz-adv-x="464" d="M419 7q-15 -5 -50 -11t-87 -6q-60 0 -104.5 14t-73 45.5t-42.5 81.5t-14 122q0 73 15 123t45 81.5t76 45.5t109 14q48 0 85 -9.5t56 -16.5l-22 -90q-21 6 -51.5 12.5t-66.5 6.5q-28 0 -51.5 -5.5t-40 -23.5t-26 -51t-9.5 -87t9.5 -86.5t27.5 -50.5t45 -23.5t62 -5.5 q33 0 66 4.5t51 8.5z"/>
<glyph unicode="d" horiz-adv-x="567" d="M390 33q-17 -13 -50.5 -29t-82.5 -16q-50 0 -89 15t-65.5 47t-40.5 82t-14 120q0 72 15 122.5t43.5 83t70.5 47t96 14.5q16 0 33 -2.5t32 -5.5t26 -6t16 -4v224h116v-725h-100zM380 412q-9 2 -34 6.5t-57 4.5t-55 -8t-38 -28t-22 -54t-7 -86q0 -48 7.5 -79.5t22 -50 t36 -26t50.5 -7.5q35 0 60.5 9.5t36.5 16.5v302z"/>
<glyph unicode="e" horiz-adv-x="536" d="M461 10q-5 -2 -20 -5.5t-37.5 -7t-51 -6.5t-61.5 -3q-62 0 -108 14t-76 45.5t-44.5 82t-14.5 123.5q0 137 56.5 201.5t167.5 64.5q55 0 96 -13.5t68 -43t40.5 -76.5t13.5 -113v-62h-325q3 -37 13.5 -61t29 -38.5t45 -20t61.5 -5.5q26 0 51.5 2.5t47 5.5t36.5 6l20 4z M380 296q-1 73 -24.5 102.5t-80.5 29.5q-56 0 -81 -29.5t-29 -102.5h215z"/>
<glyph unicode="f" horiz-adv-x="387" d="M100 414h-74v93h74v59q0 46 12.5 77t35 50.5t54 28t69.5 8.5t68 -5.5t45 -9.5l-13 -87q-9 2 -29.5 5.5t-49.5 3.5q-41 0 -58.5 -19.5t-17.5 -63.5v-47h147v-93h-147v-414h-116v414z"/>
<glyph unicode="g" horiz-adv-x="567" d="M97 -101q5 -2 20.5 -5t37 -6.5t48.5 -6t56 -2.5q63 0 92 24.5t29 80.5v37q-11 -5 -43 -16t-82 -11q-103 0 -155 62.5t-52 194.5q0 139 56.5 203.5t159.5 64.5q23 0 43 -5t36.5 -12t28.5 -14.5t19 -13.5l5 33h100v-528q0 -106 -60 -152t-167 -46q-37 0 -69 3t-57 7t-41 8 l-20 5zM380 397q-10 5 -35 15.5t-58 10.5q-30 0 -52.5 -8t-37.5 -28t-22.5 -54t-7.5 -86q0 -48 7 -78.5t22 -47.5t38 -23.5t54 -6.5q28 0 54.5 6t37.5 11v289z"/>
<glyph unicode="h" horiz-adv-x="564" d="M70 725h117v-245l19 9.5t32 13t43 11.5t52 5q36 0 66 -8.5t51.5 -27.5t33.5 -49.5t12 -73.5v-360h-116v331q0 40 -17 61.5t-60 21.5q-23 0 -42.5 -4t-35 -9.5t-25.5 -10.5t-13 -7v-383h-117v725z"/>
<glyph unicode="i" horiz-adv-x="260" d="M72 507h116v-507h-116v507zM69 710h122v-118h-122v118z"/>
<glyph unicode="j" horiz-adv-x="260" d="M-83 -112q8 -2 30.5 -6.5t57.5 -4.5q41 0 54 22.5t13 60.5v547h116v-564q0 -78 -38.5 -120t-126.5 -42q-50 0 -78 6t-44 10zM69 710h122v-118h-122v118z"/>
<glyph unicode="k" horiz-adv-x="537" d="M70 725h116v-402l185 184h140l-228 -225l254 -282h-149l-202 228v-228h-116v725z"/>
<glyph unicode="l" horiz-adv-x="257" d="M70 725h117v-725h-117v725z"/>
<glyph unicode="m" horiz-adv-x="834" d="M70 507h99l5 -41q9 6 23 15.5t32.5 17.5t42 14t50.5 6q49 0 79 -13.5t49 -43.5q14 10 30.5 20t36 18t43 13.5t51.5 5.5q73 0 114 -35.5t41 -122.5v-361h-117v333q0 41 -14 61t-54 20q-39 0 -66 -12t-40 -20q1 -7 1 -14v-14v-354h-116v333q0 41 -14.5 61t-54.5 20 t-66.5 -12t-37.5 -19v-383h-117v507z"/>
<glyph unicode="n" horiz-adv-x="564" d="M70 507h99l5 -41q7 5 22 14t35.5 17.5t46.5 15t56 6.5q36 0 66 -8.5t51 -27.5t33 -49.5t12 -73.5v-360h-116v331q0 40 -17 61.5t-60 21.5q-23 0 -43 -4t-35 -9.5t-25 -11t-13 -7.5v-382h-117v507z"/>
<glyph unicode="o" horiz-adv-x="568" d="M284 80q31 0 53 8t36.5 27.5t21 53t6.5 84.5t-6.5 85t-21 53.5t-36.5 27.5t-53 8t-53 -8t-36.5 -27.5t-21 -53.5t-6.5 -85t6.5 -84.5t21 -53t36.5 -27.5t53 -8zM284 -12q-55 0 -98.5 13.5t-74 44.5t-47 82t-16.5 125q0 75 17 126t47.5 82t74 44.5t97.5 13.5t97.5 -13.5 t74 -44.5t47.5 -82t17 -126q0 -74 -16.5 -125t-47 -82t-74 -44.5t-98.5 -13.5z"/>
<glyph unicode="p" horiz-adv-x="566" d="M70 507h99l5 -33q7 5 19 13t29 15t38.5 12t47.5 5q103 0 156.5 -64t53.5 -205q0 -72 -15.5 -121.5t-44 -81t-69.5 -45.5t-92 -14q-41 0 -70.5 9.5t-39.5 14.5v-231h-117v726zM187 101q11 -4 35.5 -10.5t53.5 -6.5q33 0 56.5 7.5t38.5 27t22 53t7 84.5q0 48 -7 80 t-21 51.5t-36 27.5t-52 8q-32 0 -59.5 -10t-37.5 -16v-296z"/>
<glyph unicode="q" horiz-adv-x="567" d="M380 16q-11 -5 -44 -16.5t-81 -11.5q-103 0 -155 63t-52 197q0 72 15 123t42.5 84t67.5 48.5t91 15.5q24 0 44 -5t36 -12t27.5 -14.5t19.5 -13.5l5 33h100v-726h-116v235zM380 397q-9 5 -35 15.5t-58 10.5q-30 0 -52.5 -8t-37.5 -28.5t-22.5 -55t-7.5 -87.5q0 -48 7 -79 t22 -49t38 -25t54 -7q29 0 55 7t37 12v294z"/>
<glyph unicode="r" horiz-adv-x="386" d="M70 507h99l5 -45q24 20 59.5 37t77.5 17q22 0 38 -2.5t27 -5.5l-18 -101q-11 3 -25 5.5t-34 2.5t-38 -4t-33 -9.5t-25.5 -11.5t-15.5 -10v-380h-117v507z"/>
<glyph unicode="s" horiz-adv-x="469" d="M49 98q20 -4 62.5 -10t93.5 -6q57 0 83.5 11t26.5 46q0 31 -19 43t-65 22l-58 12q-63 12 -95.5 48t-32.5 102q0 34 11.5 62.5t36 48.5t62.5 31t91 11q27 0 54 -2.5t49.5 -6.5t38 -7.5t20.5 -4.5l-17 -89q-5 1 -20 3.5t-35 5.5t-42.5 5t-43.5 2q-41 0 -67 -10.5t-26 -44.5 q0 -27 15 -38.5t54 -19.5l63 -13q41 -8 68 -21.5t43 -32t22.5 -43.5t6.5 -55q0 -85 -57 -122t-155 -37q-63 0 -111.5 7.5t-70.5 12.5z"/>
<glyph unicode="t" horiz-adv-x="399" d="M376 5q-14 -4 -45.5 -9.5t-76.5 -5.5q-41 0 -69.5 9t-46.5 29t-26.5 52.5t-8.5 79.5v254h-75v93h75v132h116v-132h149v-93h-149v-256q0 -38 13.5 -56t57.5 -18q29 0 55 3.5t39 6.5z"/>
<glyph unicode="u" horiz-adv-x="564" d="M68 507h116v-331q0 -42 16.5 -62.5t60.5 -20.5q23 0 42.5 4t34.5 9.5t25 11t14 7.5v382h117v-507h-99l-5 41q-8 -5 -22.5 -14t-35 -17.5t-46.5 -15t-56 -6.5q-36 0 -66 8.5t-51 27.5t-33 50t-12 75v358z"/>
<glyph unicode="v" horiz-adv-x="522" d="M12 507h127l126 -375l123 375h121l-187 -507h-120z"/>
<glyph unicode="w" horiz-adv-x="765" d="M15 507h126l91 -372l103 372h104l101 -376l89 376h121l-150 -507h-117l-101 358l-99 -358h-117z"/>
<glyph unicode="x" horiz-adv-x="536" d="M205 264l-167 243h131l103 -160l107 160h118l-167 -236l186 -271h-130l-124 186l-125 -186h-118z"/>
<glyph unicode="y" horiz-adv-x="532" d="M34 -113q7 -2 29.5 -7t53.5 -5q30 0 49 15.5t32 51.5l27 75l-213 490h129l141 -348l115 348h122l-217 -584q-12 -31 -24.5 -57t-32 -45t-47.5 -29.5t-70 -10.5q-45 0 -74.5 7.5t-37.5 10.5z"/>
<glyph unicode="z" horiz-adv-x="483" d="M33 81l274 333h-264v93h395l9 -81l-273 -333h283l-14 -93h-410v81z"/>
<glyph unicode="{" horiz-adv-x="330" d="M97 225q0 46 -52 46h-20v105h20q52 0 52 46v125q0 25 3.5 51t17.5 47t41.5 34.5t76.5 13.5h71v-92h-54q-28 0 -35 -14.5t-7 -35.5v-129q0 -32 -13.5 -57.5t-53.5 -41.5q40 -15 53.5 -40.5t13.5 -57.5v-129q0 -22 7 -36t35 -14h54v-92h-71q-49 0 -76.5 13t-41.5 34 t-17.5 47t-3.5 51v126z"/>
<glyph unicode="|" horiz-adv-x="268" d="M75 703h118v-734h-118v734z"/>
<glyph unicode="}" horiz-adv-x="330" d="M233 99q0 -25 -3.5 -51t-17.5 -47t-41.5 -34t-76.5 -13h-71v92h54q28 0 35 14t7 36v129q0 32 13.5 57.5t53.5 40.5q-40 16 -53.5 41.5t-13.5 57.5v129q0 21 -7 35.5t-35 14.5h-54v92h71q49 0 76.5 -13.5t41.5 -34.5t17.5 -47t3.5 -51v-125q0 -46 52 -46h20v-105h-20 q-52 0 -52 -46v-126z"/>
<glyph unicode="~" d="M37 337q37 53 75 74t89 21q28 0 50.5 -7.5t43 -16.5t40.5 -16.5t43 -7.5q24 0 45.5 9.5t47.5 41.5l67 -66q-37 -52 -75.5 -73.5t-89.5 -21.5q-28 0 -50.5 7.5t-42.5 16.5t-40 16.5t-43 7.5t-45 -9t-48 -42z"/>
<glyph unicode="¡" horiz-adv-x="267" d="M79 313h109l12 -479h-133zM197 384h-127v123h127v-123z"/>
<glyph unicode="¢" d="M293 -9q-52 4 -90 20.5t-62.5 48t-36.5 79.5t-12 114q0 65 12.5 112.5t37 79t62.5 48.5t89 22v98h72v-97q37 -2 72 -11.5t51 -15.5l-21 -86q-18 5 -46 11.5t-56 8.5v-340q14 0 30 1.5t32 4t30 4.5t24 4l-9 -88q-6 -2 -34 -9t-73 -9v-98h-72v98zM293 419q-20 -5 -36 -15 t-27 -29.5t-17 -49t-6 -72.5q0 -41 5.5 -69.5t16 -48t26.5 -30.5t38 -16v330z"/>
<glyph unicode="£" d="M82 87q21 12 40.5 28t34.5 35t24 42t9 49q0 15 -3 27t-8 23h-110v94h64q-11 20 -18.5 45t-7.5 58q0 37 11.5 71t38 59t68.5 40t104 15q35 0 68 -5t59.5 -11.5t43.5 -12t20 -6.5l-22 -91q-5 1 -20.5 5.5t-38 9.5t-51 8.5t-58.5 3.5q-50 0 -80.5 -20t-30.5 -70 q0 -32 11 -57.5t20 -41.5h170v-94h-128q6 -21 6 -46q0 -86 -68 -141h309l-16 -104h-441v87z"/>
<glyph unicode="¤" d="M100 222q-32 52 -32 111q0 58 32 110l-56 55l74 72l57 -57q52 32 113 32q60 0 112 -32l58 57l73 -72l-56 -55q33 -53 33 -110q0 -58 -33 -111l56 -54l-73 -73l-58 57q-50 -31 -112 -31q-63 0 -113 31l-57 -57l-74 73zM288 211q26 0 48 9t38 25.5t25 38.5t9 49 q0 26 -9 48.5t-25 39t-38 25.5t-48 9q-53 0 -86.5 -34.5t-33.5 -87.5q0 -54 33.5 -88t86.5 -34z"/>
<glyph unicode="¥" d="M78 205h151v73h-151v86h114l-167 293h132l135 -264l137 264h120l-166 -293h115v-86h-152v-73h152v-85h-152v-120h-117v120h-151v85z"/>
<glyph unicode="¦" horiz-adv-x="268" d="M75 703h118v-245h-118v245zM75 214h118v-245h-118v245z"/>
<glyph unicode="§" horiz-adv-x="586" d="M102 3q7 -2 26.5 -5t46.5 -7t58.5 -6.5t63.5 -2.5q35 0 57.5 5t35.5 13.5t18 21t5 27.5q0 25 -14.5 43t-52.5 23l-113 14q-42 5 -74.5 16t-55 30.5t-34.5 49t-12 71.5q0 26 7 47.5t17.5 38t23 29t23.5 20.5q-38 21 -54 55.5t-16 73.5q0 36 11.5 67.5t38.5 54t71 35.5 t109 13q36 0 71 -4t63.5 -9.5t48 -10.5t23.5 -7l-16 -94q-6 2 -26 6t-47.5 8.5t-59 7.5t-61.5 3q-34 0 -55.5 -5t-34 -14t-17.5 -21t-5 -25q0 -26 13 -44t51 -23l116 -15q44 -6 77 -17t55.5 -30.5t33.5 -49t11 -71.5q0 -27 -7 -48t-17.5 -38t-22.5 -29t-23 -21 q40 -22 55 -56t15 -73q0 -38 -12 -69t-39.5 -53t-72 -34.5t-109.5 -12.5q-38 0 -74 3.5t-64.5 8.5t-48 9.5t-23.5 6.5zM362 211q5 3 14.5 9.5t18.5 17.5t15.5 28t6.5 41q0 34 -18 54t-74 27l-101 13q-5 -3 -14.5 -9.5t-18.5 -18t-15.5 -28t-6.5 -40.5q0 -34 19.5 -54 t72.5 -27z"/>
<glyph unicode="¨" horiz-adv-x="525" d="M117 707h108v-111h-108v111zM300 707h107v-111h-107v111z"/>
<glyph unicode="©" horiz-adv-x="800" d="M40 335q0 76 27.5 140.5t76 112t114 74t141.5 26.5t141.5 -26.5t114 -74t76.5 -112t28 -140.5t-28 -140t-76.5 -110.5t-114 -73t-141.5 -26.5t-141.5 26.5t-114 73t-76 110.5t-27.5 140zM399 63q57 0 106 19.5t85.5 55.5t57 86t20.5 111t-20.5 111.5t-57 87t-85.5 56.5 t-106 20t-105.5 -20t-84.5 -56.5t-56.5 -87t-20.5 -111.5t20.5 -111t56.5 -86t84.5 -55.5t105.5 -19.5zM511 160q-12 -3 -39.5 -8t-65.5 -5q-42 0 -74.5 9.5t-55 31.5t-34 58t-11.5 90q0 53 12 89t35.5 58.5t57 32.5t76.5 10q32 0 63 -7.5t47 -12.5l-18 -64q-14 5 -39.5 9 t-47.5 4q-23 0 -41 -4.5t-31 -17.5t-20 -36t-7 -60t7 -60.5t20.5 -36.5t32.5 -17.5t42 -4.5q31 0 57 4.5t42 6.5z"/>
<glyph unicode="ª" horiz-adv-x="403" d="M271 334q-12 -8 -39.5 -19t-70.5 -11q-24 0 -47.5 5t-42 18t-29.5 36t-11 59q0 34 10.5 58t30 38t46.5 20.5t60 6.5q13 0 27 -1t26 -2t21 -2.5t12 -1.5v16q0 31 -17.5 45t-67.5 14q-18 0 -37.5 -2t-36.5 -5t-29 -5.5t-15 -3.5l5 75q3 1 15.5 4t31.5 6t42 5.5t47 2.5 q72 0 112 -28.5t40 -94.5v-256h-77zM264 474q-8 1 -26.5 3t-44.5 2q-38 0 -55.5 -10t-17.5 -45q0 -30 19 -39.5t51 -9.5q25 0 46 6t28 9v84z"/>
<glyph unicode="«" horiz-adv-x="534" d="M43 252l150 236l83 -46l-106 -190l106 -189l-84 -46zM256 252l150 236l83 -46l-106 -190l106 -189l-84 -46z"/>
<glyph unicode="¬" d="M70 467h430v-275h-106v175h-324v100z"/>
<glyph unicode="­" horiz-adv-x="428" d="M53 341h322v-112h-322v112z"/>
<glyph unicode="®" horiz-adv-x="800" d="M40 335q0 76 27.5 140.5t76 112t114 74t141.5 26.5t141.5 -26.5t114 -74t76.5 -112t28 -140.5t-28 -140t-76.5 -110.5t-114 -73t-141.5 -26.5t-141.5 26.5t-114 73t-76 110.5t-27.5 140zM399 63q57 0 106 19.5t85.5 55.5t57 86t20.5 111t-20.5 111.5t-57 87t-85.5 56.5 t-106 20t-105.5 -20t-84.5 -56.5t-56.5 -87t-20.5 -111.5t20.5 -111t56.5 -86t84.5 -55.5t105.5 -19.5zM266 517h157q123 0 123 -109q0 -42 -22 -67t-61 -36l109 -149h-93l-98 140h-39v-140h-76v361zM342 353h58q35 0 52.5 11.5t17.5 40.5q0 27 -13.5 38.5t-43.5 11.5h-71 v-102z"/>
<glyph unicode="¯" horiz-adv-x="525" d="M102 693h321v-90h-321v90z"/>
<glyph unicode="°" horiz-adv-x="388" d="M37 524q0 32 11.5 60t32.5 48.5t50 32.5t63 12t63 -12t50 -32.5t32.5 -48.5t11.5 -60q0 -33 -11.5 -61t-32.5 -48.5t-50 -32.5t-63 -12t-63 12t-50 32.5t-32.5 48.5t-11.5 61zM194 443q36 0 57 23t21 58q0 34 -21 57t-57 23t-57 -23t-21 -57q0 -35 21 -58t57 -23z"/>
<glyph unicode="±" d="M73 409h162v160h105v-160h163v-98h-163v-157h-105v157h-162v98zM78 101h420v-101h-420v101z"/>
<glyph unicode="²" horiz-adv-x="387" d="M41 328q0 26 9 46.5t24 37.5t35.5 31.5t43.5 28.5q33 19 58 37.5t25 44.5q0 25 -18 34.5t-47 9.5q-19 0 -39.5 -4t-38.5 -9t-31 -10t-17 -7l8 83q4 1 17 6t30.5 9.5t38.5 8.5t43 4q75 0 113 -30.5t38 -86.5q0 -26 -9.5 -46.5t-25 -37t-35.5 -29.5t-40 -25 q-56 -32 -73 -55h188l-13 -79h-284v38z"/>
<glyph unicode="³" horiz-adv-x="387" d="M47 374q12 -3 45 -8t68 -5q34 0 55 9.5t21 35.5q0 43 -63 43h-79v72h78q32 0 46.5 10.5t14.5 30.5q0 23 -17.5 31.5t-48.5 8.5q-22 0 -43 -2.5t-38 -6t-28 -6.5t-14 -4l7 76q2 1 13.5 4t29 6.5t38.5 6.5t42 3q75 0 114 -28t39 -79q0 -30 -14 -50.5t-40 -34.5 q59 -26 59 -86q0 -56 -41 -86.5t-122 -30.5q-26 0 -49 2t-41.5 5t-30.5 5.5t-15 3.5z"/>
<glyph unicode="´" horiz-adv-x="525" d="M252 579h-100l94 152h126z"/>
<glyph unicode="µ" horiz-adv-x="564" d="M68 507h116v-331q0 -42 17 -62.5t64 -20.5q22 0 41 4t33.5 9.5t24.5 11t13 7.5v382h117v-507h-99l-5 41q-5 -4 -17 -12.5t-29.5 -17.5t-39 -15.5t-45.5 -6.5q-32 0 -50 8.5t-25 13.5v-230h-116v726z"/>
<glyph unicode="¶" horiz-adv-x="676" d="M289 296h-28q-65 0 -107.5 19t-68 48.5t-35.5 65t-10 68.5v30q0 37 12 72.5t38.5 63.5t68.5 45t102 17h336v-840h-109v747h-90v-747h-109v411z"/>
<glyph unicode="·" horiz-adv-x="253" d="M60 393h133v-131h-133v131z"/>
<glyph unicode="¸" horiz-adv-x="525" d="M238 -59h117l-94 -126h-92z"/>
<glyph unicode="¹" horiz-adv-x="387" d="M180 577l-102 -29l-23 75l156 50h69v-383h-100v287z"/>
<glyph unicode="º" horiz-adv-x="434" d="M217 301q-42 0 -74.5 10t-55.5 33.5t-35 60.5t-12 91t12.5 91.5t35.5 60t55.5 32.5t73.5 10t74 -10t56 -32.5t35 -60t12 -91.5t-12 -91t-35 -60.5t-56 -33.5t-74 -10zM216 376q20 0 36 5.5t26.5 19t16 37t5.5 58.5t-5 58.5t-15.5 37t-26 19t-36.5 5.5t-37 -5.5t-26.5 -19 t-15.5 -37t-5 -58.5t5 -58.5t15.5 -37t26 -19t36.5 -5.5z"/>
<glyph unicode="»" horiz-adv-x="534" d="M45 63l106 189l-106 190l83 46l150 -235l-150 -236zM258 63l106 189l-106 190l83 46l150 -235l-150 -236z"/>
<glyph unicode="¼" horiz-adv-x="923" d="M169 577l-102 -29l-23 75l156 50h69v-383h-100v287zM570 673h113l-344 -673h-114zM544 150l189 237h90v-235h50v-69h-50v-82h-87v82h-192v67zM736 152v131l-104 -131h104z"/>
<glyph unicode="½" horiz-adv-x="923" d="M164 577l-102 -29l-23 75l156 50h69v-383h-100v287zM555 673h113l-344 -673h-114zM564 39q0 26 9 46.5t24 37.5t35.5 31.5t43.5 28.5q33 19 58 37.5t25 44.5q0 25 -18 34.5t-47 9.5q-19 0 -39.5 -4t-38.5 -9t-31 -10t-17 -7l8 83q4 1 17 6t30.5 9.5t38.5 8.5t43 4 q75 0 113 -30.5t38 -86.5q0 -26 -9.5 -46.5t-25 -37t-35.5 -29.5t-40 -25q-56 -32 -73 -55h188l-13 -79h-284v38z"/>
<glyph unicode="¾" horiz-adv-x="923" d="M52 374q12 -3 45 -8t68 -5q34 0 55 9.5t21 35.5q0 43 -63 43h-79v72h78q32 0 46.5 10.5t14.5 30.5q0 23 -17.5 31.5t-48.5 8.5q-22 0 -43 -2.5t-38 -6t-28 -6.5t-14 -4l7 76q2 1 13.5 4t29 6.5t38.5 6.5t42 3q75 0 114 -28t39 -79q0 -30 -14 -50.5t-40 -34.5 q59 -26 59 -86q0 -56 -41 -86.5t-122 -30.5q-26 0 -49 2t-41.5 5t-30.5 5.5t-15 3.5zM592 673h113l-344 -673h-114zM561 150l189 237h90v-235h50v-69h-50v-82h-87v82h-192v67zM753 152v131l-104 -131h104z"/>
<glyph unicode="¿" horiz-adv-x="478" d="M340 192q-8 -12 -15 -23.5t-14 -23.5q-43 -9 -72 -21.5t-46.5 -29t-25 -36.5t-7.5 -45q0 -93 117 -93q25 0 50.5 4t48 10t41 12t29.5 11l-12 -99q-12 -5 -30 -11.5t-41 -12t-49.5 -9.5t-53.5 -4q-58 0 -99.5 13.5t-68 38.5t-39 58.5t-12.5 74.5q0 75 42.5 126t145.5 81 v101h111v-122zM347 385h-126v123h126v-123z"/>
<glyph unicode="À" horiz-adv-x="629" d="M254 673h122l239 -673h-126l-59 170h-237l-59 -170h-120zM399 269l-86 261l-88 -261h174zM289 856l106 -120h-117l-133 120h144z"/>
<glyph unicode="Á" horiz-adv-x="629" d="M254 673h122l239 -673h-126l-59 170h-237l-59 -170h-120zM399 269l-86 261l-88 -261h174zM345 856h144l-133 -120h-117z"/>
<glyph unicode="Â" horiz-adv-x="629" d="M254 673h122l239 -673h-126l-59 170h-237l-59 -170h-120zM399 269l-86 261l-88 -261h174zM255 856h119l109 -120h-106l-62 59l-63 -59h-105z"/>
<glyph unicode="Ã" horiz-adv-x="629" d="M254 673h122l239 -673h-126l-59 170h-237l-59 -170h-120zM399 269l-86 261l-88 -261h174zM131 747q4 20 11.5 39.5t21 34.5t33 24.5t47.5 9.5q21 0 38.5 -5t33 -11t30 -11t28.5 -5q21 0 30.5 8.5t14.5 28.5l78 -13q-4 -20 -11.5 -39.5t-20.5 -34.5t-32.5 -24t-47.5 -9 q-21 0 -38.5 5t-33.5 11t-30.5 11t-28.5 5q-21 0 -30.5 -9t-14.5 -29z"/>
<glyph unicode="Ä" horiz-adv-x="629" d="M254 673h122l239 -673h-126l-59 170h-237l-59 -170h-120zM399 269l-86 261l-88 -261h174zM155 851h112v-115h-112v115zM363 851h111v-115h-111v115z"/>
<glyph unicode="Å" horiz-adv-x="629" d="M244 645q-22 14 -35 38t-13 55q0 25 9 46t25 36t37.5 23.5t46.5 8.5q51 0 84.5 -31.5t33.5 -82.5q0 -30 -12.5 -54t-34.5 -38l230 -646h-126l-59 170h-237l-59 -170h-120zM399 269l-86 261l-88 -261h174zM314 685q24 0 38 15t14 38q0 24 -14 38.5t-38 14.5t-38 -14.5 t-14 -38.5q0 -23 14 -38t38 -15z"/>
<glyph unicode="Æ" horiz-adv-x="899" d="M213 191l-88 -191h-120l321 673h518v-107h-281v-167h254v-105h-254v-188h298l-14 -106h-407v191h-227zM260 291h180v276h-52z"/>
<glyph unicode="Ç" horiz-adv-x="560" d="M517 10q-2 -1 -17 -5t-39 -8t-55 -7t-65 -3q-69 0 -122.5 17.5t-91 58.5t-57 108.5t-19.5 166.5q0 94 20.5 160.5t59 107.5t94 60t126.5 19q34 0 64.5 -4.5t54.5 -10t40 -11t21 -7.5l-23 -99q-11 3 -28 7t-37 7t-41.5 5.5t-39.5 2.5q-45 0 -79 -10.5t-56 -37t-33 -72.5 t-11 -117t11 -118t34 -74.5t58 -38.5t82 -11q45 0 89 7t72 13zM277 -59h121l-94 -126h-96z"/>
<glyph unicode="È" horiz-adv-x="547" d="M78 673h414v-107h-291v-167h263v-105h-263v-188h307l-14 -106h-416v673zM283 856l106 -120h-117l-133 120h144z"/>
<glyph unicode="É" horiz-adv-x="547" d="M78 673h414v-107h-291v-167h263v-105h-263v-188h307l-14 -106h-416v673zM319 856h144l-133 -120h-117z"/>
<glyph unicode="Ê" horiz-adv-x="547" d="M78 673h414v-107h-291v-167h263v-105h-263v-188h307l-14 -106h-416v673zM226 856h119l109 -120h-106l-62 59l-63 -59h-105z"/>
<glyph unicode="Ë" horiz-adv-x="547" d="M78 673h414v-107h-291v-167h263v-105h-263v-188h307l-14 -106h-416v673zM126 851h112v-115h-112v115zM334 851h111v-115h-111v115z"/>
<glyph unicode="Ì" horiz-adv-x="279" d="M78 673h123v-673h-123v673zM103 856l106 -120h-117l-133 120h144z"/>
<glyph unicode="Í" horiz-adv-x="279" d="M78 673h123v-673h-123v673zM176 856h144l-133 -120h-117z"/>
<glyph unicode="Î" horiz-adv-x="279" d="M78 673h123v-673h-123v673zM81 856h119l109 -120h-106l-62 59l-63 -59h-105z"/>
<glyph unicode="Ï" horiz-adv-x="279" d="M78 673h123v-673h-123v673zM-20 851h112v-115h-112v115zM188 851h111v-115h-111v115z"/>
<glyph unicode="Ð" horiz-adv-x="661" d="M78 293h-66v95h66v285h217q70 0 128 -15.5t99 -54t64 -103t23 -163.5t-23 -164t-64 -103.5t-99 -54t-128 -15.5h-217v293zM294 103q42 0 76 8.5t58.5 34t37.5 71.5t13 120t-13 120t-37.5 71t-58.5 33.5t-76 8.5h-93v-182h140v-95h-140v-190h93z"/>
<glyph unicode="Ñ" horiz-adv-x="671" d="M78 673h122l279 -478v478h114v-673h-119l-282 479v-479h-114v673zM150 747q4 20 11.5 39.5t21 34.5t33 24.5t47.5 9.5q21 0 38.5 -5t33 -11t30 -11t28.5 -5q21 0 30.5 8.5t14.5 28.5l78 -13q-4 -20 -11.5 -39.5t-20.5 -34.5t-32.5 -24t-47.5 -9q-21 0 -38.5 5t-33.5 11 t-30.5 11t-28.5 5q-21 0 -30.5 -9t-14.5 -29z"/>
<glyph unicode="Ò" horiz-adv-x="689" d="M344 -15q-70 0 -124.5 17.5t-92 59t-57 109t-19.5 166.5t20 166t58 108t92 58.5t123 17.5q70 0 124.5 -17.5t92 -58.5t57 -108t19.5 -166t-19.5 -166.5t-56.5 -109t-92 -59t-125 -17.5zM344 86q43 0 73.5 12t50.5 40.5t29.5 77t9.5 121.5t-9.5 121t-29.5 76.5t-50.5 40 t-73.5 11.5t-73.5 -11.5t-50.5 -40t-29.5 -76.5t-9.5 -121t9.5 -121.5t29.5 -77t50.5 -40.5t73.5 -12zM327 856l106 -120h-117l-133 120h144z"/>
<glyph unicode="Ó" horiz-adv-x="689" d="M344 -15q-70 0 -124.5 17.5t-92 59t-57 109t-19.5 166.5t20 166t58 108t92 58.5t123 17.5q70 0 124.5 -17.5t92 -58.5t57 -108t19.5 -166t-19.5 -166.5t-56.5 -109t-92 -59t-125 -17.5zM344 86q43 0 73.5 12t50.5 40.5t29.5 77t9.5 121.5t-9.5 121t-29.5 76.5t-50.5 40 t-73.5 11.5t-73.5 -11.5t-50.5 -40t-29.5 -76.5t-9.5 -121t9.5 -121.5t29.5 -77t50.5 -40.5t73.5 -12zM369 856h144l-133 -120h-117z"/>
<glyph unicode="Ô" horiz-adv-x="689" d="M344 -15q-70 0 -124.5 17.5t-92 59t-57 109t-19.5 166.5t20 166t58 108t92 58.5t123 17.5q70 0 124.5 -17.5t92 -58.5t57 -108t19.5 -166t-19.5 -166.5t-56.5 -109t-92 -59t-125 -17.5zM344 86q43 0 73.5 12t50.5 40.5t29.5 77t9.5 121.5t-9.5 121t-29.5 76.5t-50.5 40 t-73.5 11.5t-73.5 -11.5t-50.5 -40t-29.5 -76.5t-9.5 -121t9.5 -121.5t29.5 -77t50.5 -40.5t73.5 -12zM285 856h119l109 -120h-106l-62 59l-63 -59h-105z"/>
<glyph unicode="Õ" horiz-adv-x="689" d="M344 -15q-70 0 -124.5 17.5t-92 59t-57 109t-19.5 166.5t20 166t58 108t92 58.5t123 17.5q70 0 124.5 -17.5t92 -58.5t57 -108t19.5 -166t-19.5 -166.5t-56.5 -109t-92 -59t-125 -17.5zM344 86q43 0 73.5 12t50.5 40.5t29.5 77t9.5 121.5t-9.5 121t-29.5 76.5t-50.5 40 t-73.5 11.5t-73.5 -11.5t-50.5 -40t-29.5 -76.5t-9.5 -121t9.5 -121.5t29.5 -77t50.5 -40.5t73.5 -12zM161 747q4 20 11.5 39.5t21 34.5t33 24.5t47.5 9.5q21 0 38.5 -5t33 -11t30 -11t28.5 -5q21 0 30.5 8.5t14.5 28.5l78 -13q-4 -20 -11.5 -39.5t-20.5 -34.5t-32.5 -24 t-47.5 -9q-21 0 -38.5 5t-33.5 11t-30.5 11t-28.5 5q-21 0 -30.5 -9t-14.5 -29z"/>
<glyph unicode="Ö" horiz-adv-x="689" d="M344 -15q-70 0 -124.5 17.5t-92 59t-57 109t-19.5 166.5t20 166t58 108t92 58.5t123 17.5q70 0 124.5 -17.5t92 -58.5t57 -108t19.5 -166t-19.5 -166.5t-56.5 -109t-92 -59t-125 -17.5zM344 86q43 0 73.5 12t50.5 40.5t29.5 77t9.5 121.5t-9.5 121t-29.5 76.5t-50.5 40 t-73.5 11.5t-73.5 -11.5t-50.5 -40t-29.5 -76.5t-9.5 -121t9.5 -121.5t29.5 -77t50.5 -40.5t73.5 -12zM185 851h112v-115h-112v115zM393 851h111v-115h-111v115z"/>
<glyph unicode="×" d="M356 329l121 -120l-68 -68l-121 120l-120 -120l-68 68l120 120l-120 121l68 68l120 -121l121 121l68 -68z"/>
<glyph unicode="Ø" horiz-adv-x="689" d="M344 -15q-59 0 -107 12l-37 -83h-95l54 119q-53 38 -80.5 111.5t-27.5 192.5q0 99 20 166t58 108t92 58.5t123 17.5q58 0 105 -12l38 83h93l-53 -118q54 -38 82 -110.5t28 -192.5q0 -99 -19.5 -166.5t-56.5 -109t-92 -59t-125 -17.5zM344 86q43 0 73.5 12t50.5 40.5 t29.5 77t9.5 121.5q0 132 -32 187l-194 -430q14 -5 29.5 -6.5t33.5 -1.5zM181 337q0 -66 7 -112t24 -75l194 428q-14 5 -29.5 6.5t-32.5 1.5q-43 0 -73.5 -11.5t-50.5 -40t-29.5 -76.5t-9.5 -121z"/>
<glyph unicode="Ù" horiz-adv-x="663" d="M75 673h123v-445q0 -44 9 -71t26 -43t41.5 -21.5t56.5 -5.5q31 0 56 5.5t42.5 21.5t26.5 43t9 71v445h123v-430q0 -78 -17 -128t-50 -79t-81 -40t-109 -11t-108.5 11t-80.5 40t-50 79t-17 128v430zM305 856l106 -120h-117l-133 120h144z"/>
<glyph unicode="Ú" horiz-adv-x="663" d="M75 673h123v-445q0 -44 9 -71t26 -43t41.5 -21.5t56.5 -5.5q31 0 56 5.5t42.5 21.5t26.5 43t9 71v445h123v-430q0 -78 -17 -128t-50 -79t-81 -40t-109 -11t-108.5 11t-80.5 40t-50 79t-17 128v430zM358 856h144l-133 -120h-117z"/>
<glyph unicode="Û" horiz-adv-x="663" d="M75 673h123v-445q0 -44 9 -71t26 -43t41.5 -21.5t56.5 -5.5q31 0 56 5.5t42.5 21.5t26.5 43t9 71v445h123v-430q0 -78 -17 -128t-50 -79t-81 -40t-109 -11t-108.5 11t-80.5 40t-50 79t-17 128v430zM272 856h119l109 -120h-106l-62 59l-63 -59h-105z"/>
<glyph unicode="Ü" horiz-adv-x="663" d="M75 673h123v-445q0 -44 9 -71t26 -43t41.5 -21.5t56.5 -5.5q31 0 56 5.5t42.5 21.5t26.5 43t9 71v445h123v-430q0 -78 -17 -128t-50 -79t-81 -40t-109 -11t-108.5 11t-80.5 40t-50 79t-17 128v430zM172 851h112v-115h-112v115zM380 851h111v-115h-111v115z"/>
<glyph unicode="Ý" horiz-adv-x="600" d="M238 299l-226 374h134l158 -276l160 276h123l-225 -374v-299h-124v299zM341 856h144l-133 -120h-117z"/>
<glyph unicode="Þ" horiz-adv-x="579" d="M325 537q57 0 97.5 -15t66.5 -42t38 -64t12 -81q0 -96 -60.5 -148.5t-200.5 -52.5h-31l23 97q32 0 59 4.5t46.5 16t30 31t10.5 50.5q0 50 -26 76t-88 26h-102v-435h-122v673h122v-136h125z"/>
<glyph unicode="ß" horiz-adv-x="590" d="M70 523q0 61 17 101.5t47.5 63.5t71.5 32.5t89 9.5q59 0 99 -15t64.5 -40.5t35 -59.5t10.5 -72q0 -36 -7.5 -60.5t-19.5 -41t-26.5 -27t-28.5 -17.5q27 -6 49.5 -19t39 -35t26 -54.5t9.5 -77.5q0 -117 -54.5 -166t-159.5 -49q-11 0 -23.5 1t-24.5 2t-20.5 2t-10.5 1l9 89 q6 -2 21 -3t29 -1q33 0 55.5 5.5t36.5 19.5t20 38t6 62q0 42 -10 67t-27.5 38.5t-41 17.5t-51.5 4h-32v93h19q53 0 78 24.5t25 85.5q0 21 -4 39.5t-14.5 32t-29.5 21.5t-49 8q-23 0 -43 -5t-34 -19t-22 -38.5t-8 -64.5v-516h-116v523z"/>
<glyph unicode="à" horiz-adv-x="523" d="M354 32q-8 -5 -20.5 -12.5t-30 -14.5t-41 -12t-51.5 -5q-33 0 -64 7t-54 25t-37 49.5t-14 80.5q0 91 51 128t140 37q18 0 36 -1.5t33 -3t26.5 -3.5t15.5 -2v30q0 21 -4.5 37.5t-17 28t-34 17t-55.5 5.5q-25 0 -50 -3t-46 -6.5t-36 -7t-19 -4.5l7 92q4 1 19.5 5.5 t39.5 8.5t54.5 7.5t62.5 3.5q92 0 142 -39t50 -128v-352h-95zM344 226q-9 1 -35.5 3.5t-59.5 2.5q-51 0 -74.5 -16.5t-23.5 -65.5q0 -45 24 -58.5t69 -13.5q16 0 32 2.5t29.5 6.5t23.5 8l15 6v125zM117 731h126l94 -152h-100z"/>
<glyph unicode="á" horiz-adv-x="523" d="M354 32q-8 -5 -20.5 -12.5t-30 -14.5t-41 -12t-51.5 -5q-33 0 -64 7t-54 25t-37 49.5t-14 80.5q0 91 51 128t140 37q18 0 36 -1.5t33 -3t26.5 -3.5t15.5 -2v30q0 21 -4.5 37.5t-17 28t-34 17t-55.5 5.5q-25 0 -50 -3t-46 -6.5t-36 -7t-19 -4.5l7 92q4 1 19.5 5.5 t39.5 8.5t54.5 7.5t62.5 3.5q92 0 142 -39t50 -128v-352h-95zM344 226q-9 1 -35.5 3.5t-59.5 2.5q-51 0 -74.5 -16.5t-23.5 -65.5q0 -45 24 -58.5t69 -13.5q16 0 32 2.5t29.5 6.5t23.5 8l15 6v125zM301 579h-100l94 152h126z"/>
<glyph unicode="â" horiz-adv-x="523" d="M354 32q-8 -5 -20.5 -12.5t-30 -14.5t-41 -12t-51.5 -5q-33 0 -64 7t-54 25t-37 49.5t-14 80.5q0 91 51 128t140 37q18 0 36 -1.5t33 -3t26.5 -3.5t15.5 -2v30q0 21 -4.5 37.5t-17 28t-34 17t-55.5 5.5q-25 0 -50 -3t-46 -6.5t-36 -7t-19 -4.5l7 92q4 1 19.5 5.5 t39.5 8.5t54.5 7.5t62.5 3.5q92 0 142 -39t50 -128v-352h-95zM344 226q-9 1 -35.5 3.5t-59.5 2.5q-51 0 -74.5 -16.5t-23.5 -65.5q0 -45 24 -58.5t69 -13.5q16 0 32 2.5t29.5 6.5t23.5 8l15 6v125zM211 731h103l101 -152h-95l-57 84l-58 -84h-94z"/>
<glyph unicode="ã" horiz-adv-x="523" d="M354 32q-8 -5 -20.5 -12.5t-30 -14.5t-41 -12t-51.5 -5q-33 0 -64 7t-54 25t-37 49.5t-14 80.5q0 91 51 128t140 37q18 0 36 -1.5t33 -3t26.5 -3.5t15.5 -2v30q0 21 -4.5 37.5t-17 28t-34 17t-55.5 5.5q-25 0 -50 -3t-46 -6.5t-36 -7t-19 -4.5l7 92q4 1 19.5 5.5 t39.5 8.5t54.5 7.5t62.5 3.5q92 0 142 -39t50 -128v-352h-95zM344 226q-9 1 -35.5 3.5t-59.5 2.5q-51 0 -74.5 -16.5t-23.5 -65.5q0 -45 24 -58.5t69 -13.5q16 0 32 2.5t29.5 6.5t23.5 8l15 6v125zM87 592q4 21 11.5 40.5t20 35t31 25t44.5 9.5q19 0 36 -4.5t32 -10.5 t28.5 -10.5t27.5 -4.5q17 0 25 8.5t13 28.5l79 -13q-3 -19 -10 -38.5t-19.5 -35.5t-31.5 -26t-46 -10q-20 0 -36.5 5t-31.5 10.5t-29 10.5t-27 5q-17 0 -25 -9t-13 -29z"/>
<glyph unicode="ä" horiz-adv-x="523" d="M354 32q-8 -5 -20.5 -12.5t-30 -14.5t-41 -12t-51.5 -5q-33 0 -64 7t-54 25t-37 49.5t-14 80.5q0 91 51 128t140 37q18 0 36 -1.5t33 -3t26.5 -3.5t15.5 -2v30q0 21 -4.5 37.5t-17 28t-34 17t-55.5 5.5q-25 0 -50 -3t-46 -6.5t-36 -7t-19 -4.5l7 92q4 1 19.5 5.5 t39.5 8.5t54.5 7.5t62.5 3.5q92 0 142 -39t50 -128v-352h-95zM344 226q-9 1 -35.5 3.5t-59.5 2.5q-51 0 -74.5 -16.5t-23.5 -65.5q0 -45 24 -58.5t69 -13.5q16 0 32 2.5t29.5 6.5t23.5 8l15 6v125zM120 707h108v-111h-108v111zM303 707h107v-111h-107v111z"/>
<glyph unicode="å" horiz-adv-x="523" d="M354 32q-8 -5 -20.5 -12.5t-30 -14.5t-41 -12t-51.5 -5q-33 0 -64 7t-54 25t-37 49.5t-14 80.5q0 91 51 128t140 37q18 0 36 -1.5t33 -3t26.5 -3.5t15.5 -2v30q0 21 -4.5 37.5t-17 28t-34 17t-55.5 5.5q-25 0 -50 -3t-46 -6.5t-36 -7t-19 -4.5l7 92q4 1 19.5 5.5 t39.5 8.5t54.5 7.5t62.5 3.5q92 0 142 -39t50 -128v-352h-95zM344 226q-9 1 -35.5 3.5t-59.5 2.5q-51 0 -74.5 -16.5t-23.5 -65.5q0 -45 24 -58.5t69 -13.5q16 0 32 2.5t29.5 6.5t23.5 8l15 6v125zM153 678q0 50 32.5 80t81.5 30q48 0 80.5 -30.5t32.5 -79.5t-32.5 -79 t-80.5 -30t-81 30t-33 79zM267 627q23 0 36.5 14t13.5 37t-13.5 37t-36.5 14t-36.5 -14t-13.5 -37t13.5 -37t36.5 -14z"/>
<glyph unicode="æ" horiz-adv-x="828" d="M89 494q4 1 19.5 5.5t39.5 8.5t53.5 7.5t60.5 3.5q58 0 93 -16t56 -48q24 30 64 47t92 17q108 0 161.5 -56.5t53.5 -189.5v-62h-324q3 -37 13 -61t28.5 -38.5t45 -20t61.5 -5.5q26 0 51.5 2.5t47 5.5t37 6t20.5 4l-9 -94q-5 -2 -19.5 -5.5t-37 -7t-51.5 -6.5t-62 -3 q-19 0 -42 1.5t-47 7.5t-48 17.5t-45 31.5q-6 -4 -21 -13.5t-38.5 -19.5t-54.5 -17.5t-67 -7.5q-35 0 -67.5 7t-57 25t-39 49.5t-14.5 80.5q0 91 51 128t140 37q34 0 66.5 -4t44.5 -6v30q0 21 -4.5 37.5t-17 28t-34 17t-55.5 5.5q-25 0 -50 -3t-46 -6.5t-36 -7t-19 -4.5z M361 112q-11 33 -14 63.5t-3 50.5q-12 2 -39 4t-56 2q-51 0 -74.5 -16.5t-23.5 -65.5q0 -45 26.5 -58.5t71.5 -13.5q19 0 37.5 4t33.5 9.5t25.5 11.5t15.5 9zM673 296q-2 73 -25.5 102.5t-79.5 29.5q-57 0 -82 -29.5t-28 -102.5h215z"/>
<glyph unicode="ç" horiz-adv-x="464" d="M419 7q-15 -5 -50 -11t-87 -6q-60 0 -104.5 14t-73 45.5t-42.5 81.5t-14 122q0 73 15 123t45 81.5t76 45.5t109 14q48 0 85 -9.5t56 -16.5l-22 -90q-21 6 -51.5 12.5t-66.5 6.5q-28 0 -51.5 -5.5t-40 -23.5t-26 -51t-9.5 -87t9.5 -86.5t27.5 -50.5t45 -23.5t62 -5.5 q33 0 66 4.5t51 8.5zM216 -59h117l-94 -126h-92z"/>
<glyph unicode="è" horiz-adv-x="536" d="M461 10q-5 -2 -20 -5.5t-37.5 -7t-51 -6.5t-61.5 -3q-62 0 -108 14t-76 45.5t-44.5 82t-14.5 123.5q0 137 56.5 201.5t167.5 64.5q55 0 96 -13.5t68 -43t40.5 -76.5t13.5 -113v-62h-325q3 -37 13.5 -61t29 -38.5t45 -20t61.5 -5.5q26 0 51.5 2.5t47 5.5t36.5 6l20 4z M380 296q-1 73 -24.5 102.5t-80.5 29.5q-56 0 -81 -29.5t-29 -102.5h215zM140 731h126l94 -152h-100z"/>
<glyph unicode="é" horiz-adv-x="536" d="M461 10q-5 -2 -20 -5.5t-37.5 -7t-51 -6.5t-61.5 -3q-62 0 -108 14t-76 45.5t-44.5 82t-14.5 123.5q0 137 56.5 201.5t167.5 64.5q55 0 96 -13.5t68 -43t40.5 -76.5t13.5 -113v-62h-325q3 -37 13.5 -61t29 -38.5t45 -20t61.5 -5.5q26 0 51.5 2.5t47 5.5t36.5 6l20 4z M380 296q-1 73 -24.5 102.5t-80.5 29.5q-56 0 -81 -29.5t-29 -102.5h215zM316 579h-100l94 152h126z"/>
<glyph unicode="ê" horiz-adv-x="536" d="M461 10q-5 -2 -20 -5.5t-37.5 -7t-51 -6.5t-61.5 -3q-62 0 -108 14t-76 45.5t-44.5 82t-14.5 123.5q0 137 56.5 201.5t167.5 64.5q55 0 96 -13.5t68 -43t40.5 -76.5t13.5 -113v-62h-325q3 -37 13.5 -61t29 -38.5t45 -20t61.5 -5.5q26 0 51.5 2.5t47 5.5t36.5 6l20 4z M380 296q-1 73 -24.5 102.5t-80.5 29.5q-56 0 -81 -29.5t-29 -102.5h215zM228 731h103l101 -152h-95l-57 84l-58 -84h-94z"/>
<glyph unicode="ë" horiz-adv-x="536" d="M461 10q-5 -2 -20 -5.5t-37.5 -7t-51 -6.5t-61.5 -3q-62 0 -108 14t-76 45.5t-44.5 82t-14.5 123.5q0 137 56.5 201.5t167.5 64.5q55 0 96 -13.5t68 -43t40.5 -76.5t13.5 -113v-62h-325q3 -37 13.5 -61t29 -38.5t45 -20t61.5 -5.5q26 0 51.5 2.5t47 5.5t36.5 6l20 4z M380 296q-1 73 -24.5 102.5t-80.5 29.5q-56 0 -81 -29.5t-29 -102.5h215zM131 707h108v-111h-108v111zM314 707h107v-111h-107v111z"/>
<glyph unicode="ì" horiz-adv-x="260" d="M72 507h116v-507h-116v507zM-20 731h126l94 -152h-100z"/>
<glyph unicode="í" horiz-adv-x="260" d="M72 507h116v-507h-116v507zM162 579h-100l94 152h126z"/>
<glyph unicode="î" horiz-adv-x="260" d="M72 507h116v-507h-116v507zM79 731h103l101 -152h-95l-57 84l-58 -84h-94z"/>
<glyph unicode="ï" horiz-adv-x="260" d="M72 507h116v-507h-116v507zM-15 707h108v-111h-108v111zM168 707h107v-111h-107v111z"/>
<glyph unicode="ð" horiz-adv-x="567" d="M170 541l71 63q-39 18 -77 26t-68 12l31 83q42 -4 92 -15.5t99 -37.5l73 63l48 -56l-56 -50q28 -23 52 -53.5t42 -69.5t28 -87.5t10 -106.5q0 -89 -15.5 -150.5t-45.5 -100t-75 -56t-104 -17.5q-112 0 -171 58t-59 172q0 43 11.5 82t37.5 68t67 46t101 17q49 0 85 -12.5 t51 -20.5q-9 58 -33 98t-58 68l-89 -78zM400 306q-5 3 -17 8.5t-28.5 10.5t-36 9t-40.5 4q-68 0 -94.5 -32t-26.5 -89q0 -69 29 -102t88 -33q29 0 52 10t39.5 35t25.5 68.5t9 110.5z"/>
<glyph unicode="ñ" horiz-adv-x="564" d="M70 507h99l5 -41q7 5 22 14t35.5 17.5t46.5 15t56 6.5q36 0 66 -8.5t51 -27.5t33 -49.5t12 -73.5v-360h-116v331q0 40 -17 61.5t-60 21.5q-23 0 -43 -4t-35 -9.5t-25 -11t-13 -7.5v-382h-117v507zM112 592q4 21 11.5 40.5t20 35t31 25t44.5 9.5q19 0 36 -4.5t32 -10.5 t28.5 -10.5t27.5 -4.5q17 0 25 8.5t13 28.5l79 -13q-3 -19 -10 -38.5t-19.5 -35.5t-31.5 -26t-46 -10q-20 0 -36.5 5t-31.5 10.5t-29 10.5t-27 5q-17 0 -25 -9t-13 -29z"/>
<glyph unicode="ò" horiz-adv-x="568" d="M284 80q31 0 53 8t36.5 27.5t21 53t6.5 84.5t-6.5 85t-21 53.5t-36.5 27.5t-53 8t-53 -8t-36.5 -27.5t-21 -53.5t-6.5 -85t6.5 -84.5t21 -53t36.5 -27.5t53 -8zM284 -12q-55 0 -98.5 13.5t-74 44.5t-47 82t-16.5 125q0 75 17 126t47.5 82t74 44.5t97.5 13.5t97.5 -13.5 t74 -44.5t47.5 -82t17 -126q0 -74 -16.5 -125t-47 -82t-74 -44.5t-98.5 -13.5zM141 731h126l94 -152h-100z"/>
<glyph unicode="ó" horiz-adv-x="568" d="M284 80q31 0 53 8t36.5 27.5t21 53t6.5 84.5t-6.5 85t-21 53.5t-36.5 27.5t-53 8t-53 -8t-36.5 -27.5t-21 -53.5t-6.5 -85t6.5 -84.5t21 -53t36.5 -27.5t53 -8zM284 -12q-55 0 -98.5 13.5t-74 44.5t-47 82t-16.5 125q0 75 17 126t47.5 82t74 44.5t97.5 13.5t97.5 -13.5 t74 -44.5t47.5 -82t17 -126q0 -74 -16.5 -125t-47 -82t-74 -44.5t-98.5 -13.5zM327 579h-100l94 152h126z"/>
<glyph unicode="ô" horiz-adv-x="568" d="M284 80q31 0 53 8t36.5 27.5t21 53t6.5 84.5t-6.5 85t-21 53.5t-36.5 27.5t-53 8t-53 -8t-36.5 -27.5t-21 -53.5t-6.5 -85t6.5 -84.5t21 -53t36.5 -27.5t53 -8zM284 -12q-55 0 -98.5 13.5t-74 44.5t-47 82t-16.5 125q0 75 17 126t47.5 82t74 44.5t97.5 13.5t97.5 -13.5 t74 -44.5t47.5 -82t17 -126q0 -74 -16.5 -125t-47 -82t-74 -44.5t-98.5 -13.5zM232 731h103l101 -152h-95l-57 84l-58 -84h-94z"/>
<glyph unicode="õ" horiz-adv-x="568" d="M284 80q31 0 53 8t36.5 27.5t21 53t6.5 84.5t-6.5 85t-21 53.5t-36.5 27.5t-53 8t-53 -8t-36.5 -27.5t-21 -53.5t-6.5 -85t6.5 -84.5t21 -53t36.5 -27.5t53 -8zM284 -12q-55 0 -98.5 13.5t-74 44.5t-47 82t-16.5 125q0 75 17 126t47.5 82t74 44.5t97.5 13.5t97.5 -13.5 t74 -44.5t47.5 -82t17 -126q0 -74 -16.5 -125t-47 -82t-74 -44.5t-98.5 -13.5zM110 592q4 21 11.5 40.5t20 35t31 25t44.5 9.5q19 0 36 -4.5t32 -10.5t28.5 -10.5t27.5 -4.5q17 0 25 8.5t13 28.5l79 -13q-3 -19 -10 -38.5t-19.5 -35.5t-31.5 -26t-46 -10q-20 0 -36.5 5 t-31.5 10.5t-29 10.5t-27 5q-17 0 -25 -9t-13 -29z"/>
<glyph unicode="ö" horiz-adv-x="568" d="M284 80q31 0 53 8t36.5 27.5t21 53t6.5 84.5t-6.5 85t-21 53.5t-36.5 27.5t-53 8t-53 -8t-36.5 -27.5t-21 -53.5t-6.5 -85t6.5 -84.5t21 -53t36.5 -27.5t53 -8zM284 -12q-55 0 -98.5 13.5t-74 44.5t-47 82t-16.5 125q0 75 17 126t47.5 82t74 44.5t97.5 13.5t97.5 -13.5 t74 -44.5t47.5 -82t17 -126q0 -74 -16.5 -125t-47 -82t-74 -44.5t-98.5 -13.5zM139 707h108v-111h-108v111zM322 707h107v-111h-107v111z"/>
<glyph unicode="÷" d="M231 212h113v-113h-113v113zM231 557h113v-113h-113v113zM78 377h420v-101h-420v101z"/>
<glyph unicode="ø" horiz-adv-x="568" d="M284 -12q-44 0 -80 9l-30 -65h-82l44 93q-42 29 -65 84t-23 144q0 75 17 126t47.5 82t74 44.5t97.5 13.5q43 0 81 -9l29 62h82l-44 -92q42 -29 65 -84t23 -143q0 -74 -16.5 -125t-47 -82t-74 -44.5t-98.5 -13.5zM163 253q0 -88 20 -127l142 300q-16 4 -41 4q-32 0 -55 -8 t-37.5 -28t-21.5 -54.5t-7 -86.5zM284 77q32 0 55 8t37.5 28t21.5 54t7 86q0 44 -5 75t-15 51l-141 -299q18 -3 40 -3z"/>
<glyph unicode="ù" horiz-adv-x="564" d="M68 507h116v-331q0 -42 16.5 -62.5t60.5 -20.5q23 0 42.5 4t34.5 9.5t25 11t14 7.5v382h117v-507h-99l-5 41q-8 -5 -22.5 -14t-35 -17.5t-46.5 -15t-56 -6.5q-36 0 -66 8.5t-51 27.5t-33 50t-12 75v358zM137 731h126l94 -152h-100z"/>
<glyph unicode="ú" horiz-adv-x="564" d="M68 507h116v-331q0 -42 16.5 -62.5t60.5 -20.5q23 0 42.5 4t34.5 9.5t25 11t14 7.5v382h117v-507h-99l-5 41q-8 -5 -22.5 -14t-35 -17.5t-46.5 -15t-56 -6.5q-36 0 -66 8.5t-51 27.5t-33 50t-12 75v358zM317 579h-100l94 152h126z"/>
<glyph unicode="û" horiz-adv-x="564" d="M68 507h116v-331q0 -42 16.5 -62.5t60.5 -20.5q23 0 42.5 4t34.5 9.5t25 11t14 7.5v382h117v-507h-99l-5 41q-8 -5 -22.5 -14t-35 -17.5t-46.5 -15t-56 -6.5q-36 0 -66 8.5t-51 27.5t-33 50t-12 75v358zM231 731h103l101 -152h-95l-57 84l-58 -84h-94z"/>
<glyph unicode="ü" horiz-adv-x="564" d="M68 507h116v-331q0 -42 16.5 -62.5t60.5 -20.5q23 0 42.5 4t34.5 9.5t25 11t14 7.5v382h117v-507h-99l-5 41q-8 -5 -22.5 -14t-35 -17.5t-46.5 -15t-56 -6.5q-36 0 -66 8.5t-51 27.5t-33 50t-12 75v358zM136 707h108v-111h-108v111zM319 707h107v-111h-107v111z"/>
<glyph unicode="ý" horiz-adv-x="532" d="M34 -113q7 -2 29.5 -7t53.5 -5q30 0 49 15.5t32 51.5l27 75l-213 490h129l141 -348l115 348h122l-217 -584q-12 -31 -24.5 -57t-32 -45t-47.5 -29.5t-70 -10.5q-45 0 -74.5 7.5t-37.5 10.5zM317 579h-100l94 152h126z"/>
<glyph unicode="þ" horiz-adv-x="566" d="M70 725h117v-243q18 13 48.5 25t72.5 12q103 0 156.5 -64t53.5 -205q0 -72 -15.5 -121.5t-44 -81t-69.5 -45.5t-92 -14q-41 0 -70.5 9.5t-39.5 14.5v-231h-117v944zM187 101q11 -4 35.5 -10.5t53.5 -6.5q33 0 56.5 7.5t38.5 27t22 53t7 84.5q0 48 -7 80t-21 51.5 t-36 27.5t-52 8q-32 0 -59.5 -10t-37.5 -16v-296z"/>
<glyph unicode="ÿ" horiz-adv-x="532" d="M34 -113q7 -2 29.5 -7t53.5 -5q30 0 49 15.5t32 51.5l27 75l-213 490h129l141 -348l115 348h122l-217 -584q-12 -31 -24.5 -57t-32 -45t-47.5 -29.5t-70 -10.5q-45 0 -74.5 7.5t-37.5 10.5zM123 707h108v-111h-108v111zM306 707h107v-111h-107v111z"/>
<glyph unicode="ı" horiz-adv-x="260" d="M72 507h116v-507h-116v507z"/>
<glyph unicode="Œ" horiz-adv-x="908" d="M342 0q-72 0 -126 15.5t-91 53.5t-55.5 103.5t-18.5 164.5q0 97 19.5 161.5t57.5 103.5t93.5 55t126.5 16h505v-107h-281v-167h253v-105h-253v-188h297l-14 -106h-513zM449 106v460h-95q-44 0 -76.5 -8.5t-53.5 -33t-31 -69.5t-10 -117q0 -73 10 -118t31.5 -70.5 t54.5 -34.5t79 -9h91z"/>
<glyph unicode="œ" horiz-adv-x="886" d="M811 10q-5 -2 -20 -5.5t-37.5 -7t-51 -6.5t-61.5 -3q-38 0 -66.5 6t-50.5 17t-38.5 26.5t-30.5 34.5q-28 -39 -70 -61.5t-101 -22.5q-55 0 -98.5 13.5t-74 44.5t-47 82t-16.5 125q0 75 17 126t47.5 82t74 44.5t97.5 13.5q63 0 105 -19t70 -61q25 38 65.5 59t100.5 21 q108 0 161.5 -56.5t53.5 -189.5v-62h-325q3 -38 14 -62t29.5 -38t45 -19.5t60.5 -5.5q26 0 51.5 2.5t47 5.5t36.5 6l20 4zM284 80q30 0 52.5 8t37 27.5t21.5 53t7 84.5t-7 84.5t-21.5 53t-37 27.5t-52.5 8q-31 0 -53 -8t-36.5 -27.5t-21 -53t-6.5 -84.5t6.5 -84.5t21 -53 t36.5 -27.5t53 -8zM730 296q-1 73 -24.5 102.5t-80.5 29.5q-56 0 -81 -29.5t-29 -102.5h215z"/>
<glyph unicode="Ÿ" horiz-adv-x="600" d="M238 299l-226 374h134l158 -276l160 276h123l-225 -374v-299h-124v299zM145 851h112v-115h-112v115zM353 851h111v-115h-111v115z"/>
<glyph unicode="ˆ" horiz-adv-x="525" d="M210 731h103l101 -152h-95l-57 84l-58 -84h-94z"/>
<glyph unicode="˚" horiz-adv-x="525" d="M149 678q0 50 32.5 80t81.5 30q48 0 80.5 -30.5t32.5 -79.5t-32.5 -79t-80.5 -30t-81 30t-33 79zM263 627q23 0 36.5 14t13.5 37t-13.5 37t-36.5 14t-36.5 -14t-13.5 -37t13.5 -37t36.5 -14z"/>
<glyph unicode="˜" horiz-adv-x="525" d="M88 592q4 21 11.5 40.5t20 35t31 25t44.5 9.5q19 0 36 -4.5t32 -10.5t28.5 -10.5t27.5 -4.5q17 0 25 8.5t13 28.5l79 -13q-3 -19 -10 -38.5t-19.5 -35.5t-31.5 -26t-46 -10q-20 0 -36.5 5t-31.5 10.5t-29 10.5t-27 5q-17 0 -25 -9t-13 -29z"/>
<glyph unicode=" " horiz-adv-x="430"/>
<glyph unicode=" " horiz-adv-x="860"/>
<glyph unicode=" " horiz-adv-x="430"/>
<glyph unicode=" " horiz-adv-x="860"/>
<glyph unicode=" " horiz-adv-x="286"/>
<glyph unicode=" " horiz-adv-x="215"/>
<glyph unicode=" " horiz-adv-x="143"/>
<glyph unicode=" " horiz-adv-x="143"/>
<glyph unicode=" " horiz-adv-x="107"/>
<glyph unicode=" " horiz-adv-x="172"/>
<glyph unicode=" " horiz-adv-x="47"/>
<glyph unicode="‐" horiz-adv-x="428" d="M53 341h322v-112h-322v112z"/>
<glyph unicode="‑" horiz-adv-x="428" d="M53 341h322v-112h-322v112z"/>
<glyph unicode="‒" horiz-adv-x="428" d="M53 341h322v-112h-322v112z"/>
<glyph unicode="–" horiz-adv-x="500" d="M0 338h500v-104h-500v104z"/>
<glyph unicode="—" horiz-adv-x="1000" d="M0 338h1000v-104h-1000v104z"/>
<glyph unicode="‘" horiz-adv-x="233" d="M103 673h87l-33 -228h-114z"/>
<glyph unicode="’" horiz-adv-x="233" d="M130 445h-87l33 228h114z"/>
<glyph unicode="‚" horiz-adv-x="233" d="M75 121h115l-60 -228h-88z"/>
<glyph unicode="“" horiz-adv-x="410" d="M103 673h87l-33 -228h-114zM280 673h87l-33 -228h-114z"/>
<glyph unicode="”" horiz-adv-x="410" d="M130 445h-87l33 228h114zM306 445h-87l33 228h114z"/>
<glyph unicode="„" horiz-adv-x="410" d="M75 121h115l-60 -228h-88zM252 121h115l-60 -228h-88z"/>
<glyph unicode="•" horiz-adv-x="458" d="M45 321q0 38 14.5 71.5t39.5 58.5t58.5 39.5t71.5 14.5t71.5 -14.5t58.5 -39.5t39.5 -58.5t14.5 -71.5t-14.5 -71.5t-39.5 -58.5t-58.5 -39.5t-71.5 -14.5t-71.5 14.5t-58.5 39.5t-39.5 58.5t-14.5 71.5z"/>
<glyph unicode="…" horiz-adv-x="749" d="M60 130h133v-130h-133v130zM308 130h133v-130h-133v130zM556 130h133v-130h-133v130z"/>
<glyph unicode=" " horiz-adv-x="172"/>
<glyph unicode="‹" horiz-adv-x="321" d="M43 252l150 236l83 -46l-106 -190l106 -189l-84 -46z"/>
<glyph unicode="›" horiz-adv-x="321" d="M45 63l106 189l-106 190l83 46l150 -235l-150 -236z"/>
<glyph unicode="⁄" horiz-adv-x="139" d="M185 673h113l-344 -673h-114z"/>
<glyph unicode=" " horiz-adv-x="215"/>
<glyph unicode="⁴" horiz-adv-x="387" d="M30 439l189 237h90v-235h50v-69h-50v-82h-87v82h-192v67zM222 441v131l-104 -131h104z"/>
<glyph unicode="€" d="M45 458h79q21 107 86 161t180 54q34 0 63 -4.5t51 -10t36.5 -11t19.5 -7.5l-23 -88q-4 1 -17 4t-31.5 6.5t-42 6t-48.5 2.5q-66 0 -103 -26.5t-52 -86.5h231l-16 -83h-227v-81h219q-4 -21 -7.5 -41.5t-8.5 -41.5h-192q17 -72 56.5 -97.5t103.5 -25.5q27 0 52.5 2.5 t46.5 6t35.5 6.5t18.5 4q-2 -25 -4.5 -49t-5.5 -49q-2 -1 -15 -4.5t-34.5 -7t-50 -6.5t-61.5 -3q-115 0 -178.5 55.5t-83.5 167.5h-77v83h68v81h-68v83z"/>
<glyph unicode="™" horiz-adv-x="973" d="M167 591h-145v82h383v-82h-145v-369h-93v369zM467 673h92l123 -235l122 235h92v-451h-91v291l-90 -166h-72l-85 158v-283h-91v451z"/>
<glyph unicode="" horiz-adv-x="505" d="M0 505h505v-505h-505v505z"/>
<glyph unicode="" horiz-adv-x="607" d="M100 414h-74v93h74v59q0 46 12 77t34 50.5t52.5 28t66.5 8.5q31 0 58.5 -4.5t41.5 -8.5l-13 -87q-8 2 -24 4.5t-39 2.5q-38 0 -55.5 -20.5t-17.5 -62.5v-47h319v-507h-116v414h-203v-414h-116v414zM416 710h122v-118h-122v118z"/>
<glyph unicode="" horiz-adv-x="624" d="M100 414h-74v93h74v59q0 46 12 77t34.5 50.5t53 28t68.5 8.5q32 0 60 -4.5t42 -8.5l-13 -87q-8 2 -26 4.5t-42 2.5q-39 0 -56 -19.5t-17 -63.5v-47h147v-93h-147v-414h-116v414zM437 725h117v-725h-117v725z"/>
<glyph unicode="ﬁ" horiz-adv-x="607" d="M100 414h-74v93h74v59q0 46 12 77t34 50.5t52.5 28t66.5 8.5q31 0 58.5 -4.5t41.5 -8.5l-13 -87q-8 2 -24 4.5t-39 2.5q-38 0 -55.5 -20.5t-17.5 -62.5v-47h319v-507h-116v414h-203v-414h-116v414zM416 710h122v-118h-122v118z"/>
<glyph unicode="ﬂ" horiz-adv-x="624" d="M100 414h-74v93h74v59q0 46 12 77t34.5 50.5t53 28t68.5 8.5q32 0 60 -4.5t42 -8.5l-13 -87q-8 2 -26 4.5t-42 2.5q-39 0 -56 -19.5t-17 -63.5v-47h147v-93h-147v-414h-116v414zM437 725h117v-725h-117v725z"/>
<glyph unicode="ﬃ" horiz-adv-x="933" d="M742 710h122v-118h-122v118zM426 414h-210v-414h-116v414h-74v93h74v59q0 46 12.5 77t35 50.5t54 28t69.5 8.5t68 -5.5t45 -9.5l-13 -87q-9 2 -29.5 5.5t-49.5 3.5q-41 0 -58.5 -19.5t-17.5 -63.5v-47h210v59q0 46 12 77t34 50.5t52.5 28t66.5 8.5q31 0 58.5 -4.5 t41.5 -8.5l-13 -87q-8 2 -24 4.5t-39 2.5q-38 0 -55.5 -20.5t-17.5 -62.5v-47h319v-507h-116v414h-203v-414h-116v414z"/>
<glyph unicode="ﬄ" horiz-adv-x="950" d="M763 725h117v-725h-117v725zM426 414h-210v-414h-116v414h-74v93h74v59q0 46 12.5 77t35 50.5t54 28t69.5 8.5t68 -5.5t45 -9.5l-13 -87q-9 2 -29.5 5.5t-49.5 3.5q-41 0 -58.5 -19.5t-17.5 -63.5v-47h210v59q0 46 12 77t34.5 50.5t53 28t68.5 8.5q32 0 60 -4.5t42 -8.5 l-13 -87q-8 2 -26 4.5t-42 2.5q-39 0 -56 -19.5t-17 -63.5v-47h147v-93h-147v-414h-116v414z"/>
<glyph horiz-adv-x="525" d="M236 -59h121l-94 -126h-96z"/>
<glyph horiz-adv-x="525" d="M79 747q4 20 11.5 39.5t21 34.5t33 24.5t47.5 9.5q21 0 38.5 -5t33 -11t30 -11t28.5 -5q21 0 30.5 8.5t14.5 28.5l78 -13q-4 -20 -11.5 -39.5t-20.5 -34.5t-32.5 -24t-47.5 -9q-21 0 -38.5 5t-33.5 11t-30.5 11t-28.5 5q-21 0 -30.5 -9t-14.5 -29z"/>
<glyph horiz-adv-x="525" d="M103 851h112v-115h-112v115zM311 851h111v-115h-111v115z"/>
<glyph horiz-adv-x="525" d="M202 856h119l109 -120h-106l-62 59l-63 -59h-105z"/>
<glyph horiz-adv-x="525" d="M243 856h144l-133 -120h-117z"/>
<glyph horiz-adv-x="525" d="M281 856l106 -120h-117l-133 120h144z"/>
</font>
</defs>
</svg>
